<svg xmlns="http://www.w3.org/2000/svg" xmlns:xlink="http://www.w3.org/1999/xlink" width="500" zoomAndPan="magnify" viewBox="0 0 375 374.999991" height="500" preserveAspectRatio="xMidYMid meet" version="1.0"><path stroke-linecap="butt" transform="matrix(0.75, 0, 0, 0.75, -28.268827, 27.77051)" fill="none" stroke-linejoin="miter" d="M 420.259505 399.446639 L 414.452213 394.764347 C 408.363671 389.800805 402.931379 383.712262 398.717837 376.785179 L 351.144917 300.832049 C 349.644917 298.493507 348.894917 295.868507 349.644917 292.779965 C 350.394917 290.066423 351.894917 287.816423 354.608459 285.852881 C 364.254293 278.920589 372.686585 271.337255 379.519919 262.436213 C 389.915753 249.795587 397.967837 235.279961 403.306379 219.076835 C 408.738671 202.972667 411.738671 186.113291 411.738671 168.509123 C 411.738671 150.805997 408.738671 133.576829 403.306379 117.467453 C 397.967837 101.358077 389.915753 86.748701 379.519919 73.733075 C 367.254293 59.1237 352.363667 47.696615 335.410541 39.644532 C 318.181373 31.967448 299.358455 27.748697 279.410537 27.748697 L 158.228238 27.748697 C 155.509487 27.748697 153.634487 28.873698 152.889696 31.123698 C 151.670945 33.462239 152.045945 35.43099 154.009487 37.30599 C 160.098029 44.233074 163.561571 52.285157 163.561571 61.46745 L 163.561571 376.035179 C 163.561571 384.837263 160.566779 392.519555 154.759487 399.071638 C 152.514695 401.321639 152.045945 403.28518 153.264696 405.535181 C 154.009487 407.873722 155.884487 408.998722 158.973029 408.998722 L 244.946993 408.998722 C 247.191785 408.998722 249.160535 408.248722 249.910535 405.910181 C 250.660535 403.66018 250.660535 401.696639 249.160535 399.446639 C 242.603243 392.519555 239.514701 384.837263 239.514701 375.660179 L 239.514701 319.660175 C 239.514701 316.566425 240.358451 313.852883 242.603243 311.602883 C 244.946993 309.264341 247.566785 308.139341 250.660535 308.139341 L 259.837619 308.139341 C 263.676161 308.139341 267.139703 310.014341 269.483453 313.477883 L 316.681373 389.425805 C 318.556373 392.894555 318.181373 395.983097 315.837623 399.071638 L 315.462623 399.446639 C 313.967831 401.696639 313.967831 403.66018 315.087623 405.910181 C 315.837623 408.248722 317.806373 408.998722 320.519915 408.998722 L 417.540755 408.998722 C 420.259505 408.998722 421.754297 407.873722 422.504297 405.535181 C 423.254297 403.28518 422.504297 401.321639 420.259505 399.446639 Z M 320.894915 214.113293 C 311.249081 226.384127 297.483455 232.191419 279.410537 232.191419 L 250.660535 232.191419 C 247.566785 232.191419 244.946993 231.441419 242.603243 229.097669 C 240.358451 226.759127 239.514701 224.134127 239.514701 221.045585 L 239.514701 115.128912 C 239.514701 112.128911 240.358451 109.415369 242.603243 107.071619 C 244.946993 104.826828 247.566785 103.701827 250.660535 103.701827 L 279.410537 103.701827 C 293.269913 103.701827 303.571997 106.696619 311.249081 112.878911 C 318.931373 118.967453 324.358457 125.894537 328.108457 133.576829 C 331.571999 141.253913 333.910541 148.561205 334.660541 155.488289 C 335.410541 162.326831 335.785541 166.915373 335.785541 168.509123 C 335.785541 177.686207 334.285541 186.113291 331.946999 193.790375 C 329.321999 201.472667 325.483457 208.399751 320.894915 214.113293 Z M 320.894915 214.113293 " stroke="#ff914d" stroke-width="14.384625" stroke-opacity="1" stroke-miterlimit="4"/></svg>